<svg xmlns="http://www.w3.org/2000/svg" viewBox="0 0 682.58 855.97"><defs><style>.cls-1{fill:#ecefef;}.cls-2{fill:#00776b;}</style></defs><title>01.</title><g id="Capa_2" data-name="Capa 2"><rect class="cls-1" y="1.73" width="682.58" height="854.24"/></g><g id="Capa_4" data-name="Capa 4"><circle class="cls-2" cx="479.5" cy="656.32" r="67.69"/><path class="cls-2" d="M547.17,203.67a67.72,67.72,0,0,0-135.43,1.16v105a214.12,214.12,0,0,0-79-15c-118.5,0-210,90.26-214.54,214.52C114.28,616.14,205,714.16,301,720.46c36.19,2.37,65.69-29.4,65.69-65.7A65.76,65.76,0,0,0,320,591.88c-48.86-14.81-71.1-44.34-71.1-82.5A83.39,83.39,0,0,1,332.28,426c38.54,0,69.86,23.69,81.94,67.87a67.6,67.6,0,0,0,65.24,49.51c33.38,0,68.57-27.27,67.71-66.57C547.19,476.42,547.19,204.05,547.17,203.67Z"/></g></svg>