<svg xmlns="http://www.w3.org/2000/svg" viewBox="0 0 1664.45 558.93"><defs><style>.cls-1{fill:#00776b;}.cls-2{fill:#ecefef;}</style></defs><title>01.</title><g id="Capa_2" data-name="Capa 2"><rect class="cls-1" width="1664.45" height="558.93"/></g><g id="Capa_4" data-name="Capa 4"><circle class="cls-2" cx="301.79" cy="351.44" r="21.52"/><path class="cls-2" d="M323.3,207.56a21.53,21.53,0,0,0-43.05.37v33.38a68,68,0,0,0-25.1-4.78c-37.67,0-66.74,28.69-68.2,68.19-1.25,33.95,27.58,65.11,58.09,67.11,11.5.75,20.88-9.34,20.88-20.88a20.89,20.89,0,0,0-14.84-20c-15.53-4.71-22.6-14.09-22.6-26.22A26.51,26.51,0,0,1,255,278.23c12.26,0,22.21,7.53,26.05,21.57a21.49,21.49,0,0,0,20.74,15.74c10.61,0,21.79-8.67,21.52-21.16C323.31,294.26,323.31,207.68,323.3,207.56Z"/><path class="cls-2" d="M989.27,248.88l.15,8.41a.56.56,0,0,1-.9.45,56,56,0,0,0-33-10.87c-32.46,0-58.77,28.12-58.77,62.81a64.86,64.86,0,0,0,17.21,44.42,56.76,56.76,0,0,0,41.56,18.4,55.83,55.83,0,0,0,33-10.86.57.57,0,0,1,.9.46l-.13,7.22a.56.56,0,0,0,.56.57h34.6a.57.57,0,0,0,.57-.56V248.87a.58.58,0,0,0-.57-.57h-34.6A.56.56,0,0,0,989.27,248.88Zm-8.42,82.75a27.74,27.74,0,0,1-41.07,0,32.08,32.08,0,0,1-8.5-21.95c0-17.13,13-31,29-31a28.05,28.05,0,0,1,20.54,9.09,32.58,32.58,0,0,1,0,43.89Z"/><path class="cls-2" d="M510.73,257.92a.56.56,0,0,1-.9.45A55.91,55.91,0,0,0,476,246.9c-32.46,0-58.77,28.12-58.77,62.82a64.83,64.83,0,0,0,17.21,44.41A56.76,56.76,0,0,0,476,372.53a55.86,55.86,0,0,0,33.13-10.94.56.56,0,0,1,.89.46l-.06,7.3a.57.57,0,0,0,.57.57h34.6a.58.58,0,0,0,.57-.57V190a.58.58,0,0,0-.57-.57h-34.6a.57.57,0,0,0-.57.57Zm-9.37,73.74a27.73,27.73,0,0,1-41.06,0,32.05,32.05,0,0,1-8.5-21.94c0-17.14,13-31,29-31a28,28,0,0,1,20.53,9.09,32.58,32.58,0,0,1,0,43.89Z"/><path class="cls-2" d="M755.44,299.32c-2.38-.84-4.73-1.54-6.51-2.06L745,296.15c-12.33-3.49-19.88-6-19.88-13,0-1.9,1.74-3.66,4.66-4.71,6.53-2.34,16.6-.52,23.21,7.49l.75.91a.57.57,0,0,0,.72.13l27-16a.58.58,0,0,0,.22-.75l-.6-1.15c-5.89-11.44-25-21.16-43.59-22.11-17.37-.88-31.69,5.89-40.29,19.09a35.81,35.81,0,0,0-6.11,22.33c1,13.94,10.68,25.75,25.85,31.61,2.06.72,4.11,1.34,5.74,1.82l.23.22h.53c1.29.38,2.57.75,3.84,1.1,12.31,3.49,19.86,6,19.86,13,0,1.9-1.74,3.66-4.65,4.7-6.53,2.35-16.6.52-23.21-7.5l-.67-.81a.57.57,0,0,0-.67-.15l-28.61,12.95a.56.56,0,0,0-.29.72l.48,1.21c4.92,12.54,22.34,23.06,41.43,25a61,61,0,0,0,6.13.32c16.22,0,29.86-6.89,38-19.39a35.83,35.83,0,0,0,6.11-22.34C780.19,317,770.57,305.19,755.44,299.32Z"/><path class="cls-2" d="M859.6,299.32c-2.38-.84-4.73-1.54-6.51-2.06l-3.89-1.11c-12.33-3.49-19.88-6-19.88-13,0-1.9,1.74-3.66,4.66-4.71,6.53-2.34,16.6-.52,23.21,7.49l.75.91a.57.57,0,0,0,.72.13l27-16a.58.58,0,0,0,.22-.75l-.6-1.15c-5.89-11.44-25-21.16-43.59-22.11-17.37-.88-31.69,5.89-40.29,19.09a35.81,35.81,0,0,0-6.11,22.33c1,13.94,10.68,25.75,25.85,31.61,2.06.72,4.11,1.34,5.74,1.82l.23.22h.53c1.29.38,2.57.75,3.84,1.1,12.31,3.49,19.86,6,19.86,13,0,1.9-1.74,3.66-4.65,4.7-6.53,2.35-16.6.52-23.21-7.5l-.67-.81a.57.57,0,0,0-.67-.15l-28.61,12.95a.56.56,0,0,0-.29.72l.48,1.21c4.92,12.54,22.34,23.06,41.43,25a61,61,0,0,0,6.13.32c16.22,0,29.86-6.89,38-19.39a35.83,35.83,0,0,0,6.11-22.34C884.35,317,874.73,305.19,859.6,299.32Z"/><path class="cls-2" d="M620.18,246.64c-33,0-59.74,28.18-59.74,62.95s26.75,62.94,59.74,62.94c24.76,0,46-15.87,55.06-38.48a.58.58,0,0,0-.53-.79H638a.51.51,0,0,0-.37.15,24.61,24.61,0,0,1-34.08-.15A25.1,25.1,0,0,1,596,317.87a.58.58,0,0,1,.57-.64H679a.56.56,0,0,0,.56-.51,64.57,64.57,0,0,0,.39-7.13A66.77,66.77,0,0,0,678.74,297C673.2,268.27,649.09,246.64,620.18,246.64ZM596.75,297a.58.58,0,0,1-.57-.66,24.78,24.78,0,0,1,49,0,.58.58,0,0,1-.57.66Z"/><path class="cls-2" d="M1177.78,246.64c-33,0-59.74,27.91-59.74,62.34s26.74,62.34,59.74,62.34c24.38,0,45.36-15.25,54.64-37.1a.58.58,0,0,0-.53-.79h-16.83a.55.55,0,0,0-.48.27,42.08,42.08,0,0,1-78.11-16.51.58.58,0,0,1,.57-.64h99.54a.56.56,0,0,0,.56-.5,63.48,63.48,0,0,0,.39-7.07,64.56,64.56,0,0,0-.63-9.07C1232.69,269.78,1207.83,246.64,1177.78,246.64ZM1137,299.91a.57.57,0,0,1-.57-.63,42.07,42.07,0,0,1,83.63,0,.57.57,0,0,1-.57.63Z"/><path class="cls-2" d="M1311.48,261.86c13.07.27,24.63,7,32.25,17.39a.55.55,0,0,0,.73.16l13.31-7.86a.58.58,0,0,0,.17-.84c-10.94-14.65-28-24.07-47.16-24.07-33,0-59.75,27.91-59.75,62.34s26.75,62.34,59.75,62.34a58.72,58.72,0,0,0,46.43-23.12.57.57,0,0,0-.16-.84l-13.46-8a.56.56,0,0,0-.72.14c-8,10.35-20,16.81-33.32,16.54-23.56-.48-42.22-22-41.68-48S1287.93,261.38,1311.48,261.86Z"/><path class="cls-2" d="M1462.79,262.45a48.53,48.53,0,0,0-35-15.3c-14.77,0-28.06,6.87-37.37,17.87a.56.56,0,0,1-1-.36V190a.58.58,0,0,0-.57-.57h-15.58a.57.57,0,0,0-.57.57l1,89.88-1,89.52a.57.57,0,0,0,.57.57h15.58a.58.58,0,0,0,.57-.57V303.1c0-22,16.43-39.83,36.71-39.83,19.64,0,35.67,16.73,36.65,37.78v.08l0,4.83v0l-.41,38.21-.27,25.16a.57.57,0,0,0,.57.57h15.58a.58.58,0,0,0,.57-.57V303.08A58.46,58.46,0,0,0,1462.79,262.45Z"/><path class="cls-2" d="M1085.1,345.4V265.51a.56.56,0,0,1,.56-.56h20.9a.58.58,0,0,0,.57-.57V248.8a.57.57,0,0,0-.57-.56h-20.9a.57.57,0,0,1-.56-.57V215.26a.57.57,0,0,0-.57-.56h-15.59a.56.56,0,0,0-.56.56l.1,32.41a.56.56,0,0,1-.56.57h-21a.56.56,0,0,0-.56.56v15.58a.57.57,0,0,0,.56.57H1068a.57.57,0,0,1,.57.56l.1,29.83-.2,56.39v.46c0,.35,0,.69,0,1,.56,9.19,7.39,16.48,15.82,16.71h23.24a.58.58,0,0,0,.57-.57V353.78a.57.57,0,0,0-.57-.56H1092.2C1088.28,353.22,1085.1,349.72,1085.1,345.4Z"/></g></svg>